<svg width="76" height="45" viewBox="0 0 76 45" fill="none" xmlns="http://www.w3.org/2000/svg">
<path id="Vector" d="M74 20.66C74 20.66 66.1688 32.3858 62.2958 35.7285C60.2598 37.4857 57.8123 39.0633 54.795 39.3698C53.6183 39.4895 52.4546 39.4126 51.3258 39.1923C56.2962 35.3043 59.2412 29.7276 58.6946 24.0241C58.6679 23.7438 58.633 23.4612 58.5898 23.1766C60.0312 22.479 61.2825 21.5079 62.2762 20.2937C64.6427 17.403 65.955 13.1622 64.8351 9.74467C63.7899 6.55672 60.415 4.65989 56.7463 3.7346C53.6277 2.94746 50.3658 2.71492 47.1703 3.0253C45.7259 2.88665 44.2407 2.90319 42.7596 3.01654C39.3633 2.17638 35.7893 2.208 32.3835 3.04816C30.2261 2.62589 27.9402 2.61567 25.8757 3.07784C24.8252 3.31281 23.8403 3.67524 22.9177 4.12962C20.9972 4.41033 19.1033 4.85157 17.2757 5.42417C16.5076 3.21941 14.8809 1.23842 12.1958 0.345235C9.62977 -0.50855 6.32468 0.253291 4.93714 2.2761C3.25705 4.72411 5.84557 6.80871 8.4572 7.68828C9.15423 7.92277 9.86547 8.11201 10.588 8.26136C5.93737 10.814 1.53018 14.7287 1.30988 19.5382C1.24533 20.9485 1.63678 22.2941 2.35749 23.5322C1.60954 25.4208 1.46622 27.3896 2.319 29.1964C3.11255 30.8772 4.89153 31.7728 6.88727 32.126C7.13895 32.3819 7.40899 32.6276 7.6974 32.8616C7.74773 32.9025 7.79868 32.9419 7.85079 32.9803C7.89935 33.5471 7.98522 34.1133 8.11373 34.6772C8.40095 35.9333 8.94222 37.1398 9.68721 38.2572C8.81371 38.1682 7.93666 38.0398 7.05901 37.8676C-1.59441 34.8234 -2.18162 36.141 4.69138 38.1954C6.53847 38.7476 8.46727 39.094 10.421 39.2492C11.934 41.1037 14.0251 42.6478 16.4271 43.6704C20.1556 45.2578 24.2419 45.2913 28.215 44.4653C34.2241 45.431 40.7733 44.6171 46.0191 42.3364C47.4694 41.7059 48.8314 40.9514 50.0869 40.0952C51.4383 40.4683 52.8508 40.6678 54.291 40.622C57.2615 40.5282 59.8156 39.1708 61.9114 37.5406C62.5311 37.0586 65.9003 34.3369 68.7656 30.7595C71.0513 27.9056 72.8292 24.2255 74 22.7572C76.8076 19.2361 73.9204 23.002 75 22C75.503 21.8767 75 21.16 74 20.66ZM54.7588 32.9608C54.073 34.0141 53.1782 34.8319 52.1437 35.4492C53.3352 34.3746 54.3822 33.1948 55.2391 31.9295C55.4043 31.6853 55.5625 31.4386 55.7146 31.189C55.4553 31.7869 55.1378 32.3795 54.7588 32.9608ZM55.9101 28.852C54.7553 31.3973 52.8833 33.603 50.5429 35.4555C51.6018 33.3281 52.0939 31.0236 52.1425 28.6778C53.0705 27.2699 53.8989 25.8056 54.6422 24.3291C55.1367 24.2653 55.6199 24.1763 56.0901 24.0635C56.4158 25.0822 56.5799 26.1223 56.5763 27.1668C56.3839 27.736 56.1612 28.2988 55.9101 28.852ZM13.9274 32.7696C14.4983 32.325 14.9993 31.8059 15.4446 31.3029C15.5791 31.4683 15.72 31.6288 15.8657 31.786C16.3975 33.9226 17.4191 35.9187 18.9902 37.709C18.2635 37.8685 17.528 38.0018 16.7854 38.1074C15.3114 36.5419 14.4095 34.7146 13.9274 32.7696ZM19.233 41.2885C19.5131 41.4598 19.7991 41.6237 20.0893 41.7818C18.5993 41.4627 17.1561 41.0108 15.794 40.4187C15.0668 40.1025 14.3739 39.7386 13.7231 39.3314C14.6564 39.3046 15.5879 39.236 16.5118 39.1271C17.2864 39.9239 18.1889 40.6507 19.233 41.2885ZM12.5807 29.1409C11.4088 28.8651 10.2658 28.4613 9.16785 27.9301C9.91521 25.268 11.3158 22.6911 12.8158 20.3292C12.9799 20.0709 13.1481 19.8111 13.3198 19.5498C13.3636 19.5347 13.4081 19.5197 13.4519 19.5051C13.8084 19.3859 14.1661 19.2784 14.5244 19.1816C14.0855 20.4732 13.658 21.7663 13.3092 23.0715C12.7933 25.0009 12.5197 27.0748 12.5807 29.1409ZM38.4797 7.90088C38.7794 7.89893 39.0784 7.9038 39.3763 7.91644C39.5806 8.15531 39.7737 8.40342 39.9525 8.66174C40.0757 8.83931 40.1906 9.02028 40.2989 9.2032C39.6978 9.2752 39.0997 9.38612 38.5128 9.52818C38.3677 9.5632 38.225 9.60067 38.0829 9.63959C37.9941 9.59824 37.9058 9.55639 37.8158 9.51602C36.9281 9.11418 35.9741 8.74785 34.9786 8.43212C35.1207 8.3392 35.2646 8.24774 35.4091 8.15677C36.42 8.00061 37.4445 7.90817 38.4797 7.90088ZM37.3403 7.04952C37.4854 6.97363 37.6316 6.89871 37.7785 6.82525C37.9153 6.88655 38.0503 6.94979 38.1848 7.01352C37.9029 7.01985 37.6216 7.0325 37.3403 7.04952ZM55.4055 20.5306C54.9939 19.9103 54.5302 19.3134 54.0245 18.7398C53.9623 18.067 53.8409 17.3991 53.6585 16.7438C54.6084 17.2891 55.3872 18.0505 55.9971 18.9116C55.9219 19.1344 55.8455 19.3547 55.7674 19.5727C55.6525 19.8933 55.5317 20.2124 55.4055 20.5306ZM55.7247 23.0846C55.5518 23.1236 55.3759 23.1591 55.1983 23.1912C55.2966 22.9839 55.3931 22.7767 55.4878 22.569C55.5713 22.7402 55.6507 22.9119 55.7247 23.0846ZM51.3063 28.1942C51.1168 28.4803 50.9243 28.7649 50.7301 29.0475C50.3416 29.6123 49.9264 30.1606 49.487 30.6938C49.7902 29.9996 50.049 29.2952 50.2658 28.5922C50.6264 28.2132 50.9699 27.825 51.2956 27.428C51.3045 27.6834 51.308 27.9393 51.3063 28.1942ZM42.907 36.2816C42.7252 36.4485 42.5393 36.6124 42.3498 36.7734C42.3355 36.7715 42.3219 36.7691 42.3077 36.7666C42.5014 36.6003 42.6909 36.4295 42.875 36.2558C42.8857 36.2646 42.8964 36.2733 42.907 36.2816ZM38.6271 38.2528C38.3826 38.3793 38.1333 38.5024 37.8804 38.6211C36.452 38.7705 35.0088 38.6761 33.6112 38.3968C35.1722 38.357 36.7274 38.104 38.1629 37.5951C38.5176 37.4691 38.8611 37.3261 39.1933 37.1685C39.4965 37.2492 39.7991 37.3266 40.1006 37.401C39.628 37.7056 39.1364 37.9897 38.6271 38.2528ZM34.1009 39.8656C33.6461 39.7006 33.2162 39.5026 32.8123 39.2745C33.562 39.4506 34.3325 39.5746 35.1207 39.6413C35.0419 39.6617 34.9632 39.6812 34.8838 39.7002C34.625 39.7619 34.3633 39.8164 34.1009 39.8656ZM16.5941 31.2859C16.5538 31.099 16.5183 30.9113 16.4869 30.723C16.863 30.7201 17.2378 30.7035 17.6115 30.6753C18.2014 31.7441 19.0381 32.7195 20.0023 33.585C19.4172 33.3203 18.8563 33.0187 18.3263 32.6777C17.6838 32.2642 17.1052 31.7967 16.5941 31.2859ZM14.7672 28.6734C14.1092 27.2144 13.8569 25.6124 14.0091 24.042C14.2123 23.0671 14.4634 22.1141 14.7452 21.1995C15.0935 20.3773 15.5459 19.5892 16.0819 18.8361C16.5124 18.7607 16.9429 18.7014 17.3735 18.6596C16.3649 20.0081 15.9918 21.7108 15.7295 23.2447C15.4198 25.0583 15.3635 26.9089 15.4363 28.7371C15.4476 29.0135 15.466 29.2874 15.4914 29.5603C15.402 29.5554 15.3126 29.5496 15.2237 29.5433C15.0538 29.2606 14.901 28.9707 14.7672 28.6734ZM15.8805 17.7868C16.0262 17.3528 16.1695 16.9179 16.3093 16.482C16.3637 16.6635 16.4265 16.844 16.4994 17.0216C16.2862 17.2721 16.0813 17.527 15.8841 17.7858L15.8805 17.7868ZM50.8088 17.6579C50.7656 17.4321 50.717 17.2054 50.6643 16.9783C51.6195 17.7221 52.5008 18.5306 53.292 19.3995C53.3222 20.7646 53.0657 22.1185 52.5866 23.4247C52.2443 23.4286 51.9026 23.4237 51.5603 23.4096C51.4804 23.0671 51.3921 22.7256 51.2968 22.3865C51.4709 21.4145 51.4401 20.4435 51.0901 19.5596C51.0238 18.9227 50.9302 18.2879 50.8088 17.6579ZM51.8789 25.0243C51.8475 24.8287 51.8138 24.6326 51.7771 24.4376C51.9056 24.4419 52.0335 24.4454 52.162 24.4478C52.0755 24.6351 51.9844 24.8209 51.889 25.0053C51.8855 25.0116 51.8819 25.0179 51.8789 25.0243ZM47.2988 30.0195C47.1448 30.1412 46.9885 30.2613 46.8304 30.3805C46.8618 30.3027 46.8937 30.2248 46.9245 30.147C47.0714 29.7724 47.2064 29.3959 47.3302 29.0164C47.483 28.8782 47.6322 28.7372 47.7767 28.5927C47.6447 29.0733 47.4871 29.5476 47.3047 30.0142C47.303 30.0156 47.3006 30.0176 47.2988 30.0195ZM42.5825 34.6752C42.8454 34.3931 43.0918 34.1002 43.3198 33.7995C43.3843 33.7149 43.4459 33.6293 43.5069 33.5432C43.9096 33.3481 44.3017 33.1399 44.6819 32.9239C44.4373 33.2931 44.1755 33.6555 43.8948 34.0092C43.6177 34.358 43.3204 34.6957 43.0071 35.0216C42.8644 34.9073 42.7223 34.792 42.5825 34.6752ZM30.492 37.3441C30.1029 36.8814 29.763 36.3808 29.4728 35.8515C30.7076 35.692 31.9174 35.4108 33.0669 35.0124C34.6049 35.7212 36.2406 36.3103 37.881 36.7987C36.4265 37.3008 34.8429 37.5236 33.2618 37.5328C32.3367 37.5382 31.4099 37.473 30.492 37.3441ZM17.7377 13.7319C17.8366 13.62 17.936 13.5086 18.0367 13.3972C17.9964 13.5096 17.958 13.6229 17.9218 13.7363C17.8602 13.7344 17.7993 13.7329 17.7377 13.7319ZM19.8773 14.9447C20.6418 15.0999 21.3549 15.3388 22.0057 15.6599C21.9743 15.7251 21.9435 15.7903 21.9139 15.8559C20.6395 16.1493 19.4598 16.6796 18.4684 17.5105C18.3713 17.5139 18.2742 17.5178 18.1771 17.5231C18.1848 17.1364 18.2085 16.7477 18.2481 16.3604C18.7628 15.8681 19.3088 15.3957 19.8773 14.9447ZM18.4619 15.0197C18.4809 14.9331 18.4998 14.8465 18.5211 14.7608C18.5934 14.7662 18.6651 14.7725 18.7367 14.7788C18.6443 14.8586 18.5525 14.9389 18.4619 15.0197ZM31.0173 9.20661C31.3335 9.2752 31.6462 9.35158 31.9536 9.43477C31.3679 9.92953 30.8082 10.4457 30.2776 10.9813C27.5618 11.8838 25.4701 13.5689 23.7799 15.5922C23.7663 15.5932 23.7527 15.5942 23.7391 15.5952C23.5579 15.4551 23.3701 15.3237 23.1771 15.2006C23.7101 14.3566 24.4071 13.5753 25.2095 12.8922C25.3872 12.7409 25.4097 12.4919 25.3149 12.3036C25.2403 12.1557 25.0176 12.0093 24.8418 12.1591C23.9073 12.9545 23.0953 13.8355 22.483 14.8046C21.979 14.5492 21.4449 14.3429 20.8894 14.1814C21.7404 13.568 22.6269 12.9988 23.5235 12.4758C25.7247 11.192 28.1338 10.1358 30.646 9.32483C30.7698 9.28493 30.8941 9.24553 31.0185 9.20661L31.0173 9.20661ZM42.3965 13.497C43.3411 14.2826 44.1933 15.1413 44.9371 16.0617C44.8033 16.1186 44.6706 16.1765 44.5397 16.2354C44.2845 16.3502 44.0328 16.4684 43.7817 16.5886C43.7521 16.5005 43.7231 16.412 43.6917 16.3244C43.3932 15.4881 43.0071 14.7141 42.4273 13.9834C42.4202 13.8209 42.4096 13.659 42.3965 13.497ZM44.9886 29.5924C45.0372 29.0947 45.0396 28.5922 44.9963 28.0906C44.872 26.654 44.4006 25.2588 43.7213 23.9345C43.8445 23.6485 43.9487 23.3561 44.0352 23.0608C45.2581 23.4242 46.5088 23.7399 47.7773 23.9783C47.5813 25.4105 47.2911 26.8311 46.8606 28.2288C46.2974 28.7323 45.6762 29.1906 44.9886 29.5924ZM43.276 32.5755C42.5973 32.9005 41.892 33.1836 41.1606 33.4108C40.7958 33.0679 40.4399 32.7176 40.0905 32.3629C40.1462 32.3167 40.2 32.269 40.2539 32.2214C41.558 32.0273 42.8016 31.6609 43.9588 31.1516C43.8711 31.3997 43.7687 31.6473 43.6497 31.8935C43.5383 32.1236 43.4134 32.3513 43.276 32.5755ZM28.9884 36.7579C28.7888 36.6542 28.5916 36.5472 28.3985 36.4378C28.1486 36.2962 27.9046 36.1488 27.6654 35.997C27.9733 35.9868 28.2807 35.9702 28.5875 35.9454C28.7112 36.2222 28.8439 36.4932 28.9884 36.7579ZM21.8274 30.1553C21.8493 30.1086 21.8713 30.0623 21.8932 30.0161C23.3079 31.8385 25.434 33.2255 27.894 34.0024C27.9141 34.0729 27.9331 34.144 27.9538 34.214C27.483 34.4869 27.0039 34.7482 26.5165 34.9978C26.42 34.9953 26.324 34.9929 26.2275 34.9895C24.4533 33.6147 22.9935 31.9626 21.8262 30.1553L21.8274 30.1553ZM20.2119 27.1614C19.901 26.4618 19.6274 25.7501 19.3893 25.033C19.7565 24.279 20.1124 23.5201 20.4754 22.7655C20.3309 23.251 20.2249 23.7438 20.1639 24.242C20.0484 25.1887 20.1219 26.1189 20.3682 27.0233C20.3161 27.0695 20.2646 27.1162 20.2119 27.1614ZM20.3173 29.1599C19.8157 29.2708 19.3129 29.3589 18.8113 29.4265C19.0476 29.2733 19.2792 29.1151 19.5048 28.9522C19.6813 28.8247 19.8536 28.6948 20.023 28.5625C20.0958 28.7148 20.1698 28.867 20.2456 29.0188C20.2693 29.066 20.2936 29.1132 20.3173 29.1599ZM18.488 24.7066C18.1256 25.4558 17.74 26.1967 17.3231 26.926C17.3421 26.3144 17.4623 25.7253 17.6405 25.0968C17.7785 24.6112 17.9633 24.1423 18.1889 23.6913C18.2813 24.0313 18.3814 24.3695 18.488 24.7066ZM25.0792 15.5747C25.9273 14.7068 26.9026 13.9061 28.0545 13.1978C28.2215 13.0951 28.3909 12.9973 28.562 12.9039C28.3411 13.1802 28.1279 13.4609 27.9218 13.7446C27.0442 14.3035 26.218 14.9238 25.4535 15.5913C25.3286 15.584 25.2036 15.5786 25.0792 15.5747ZM36.873 11.9592C38.6958 13.5145 39.9501 15.5329 40.6264 17.6229C40.6478 17.688 40.6673 17.7537 40.6874 17.8194C40.293 18.0028 39.9057 18.1954 39.5261 18.3915C37.5849 16.4626 35.3078 14.7458 32.878 13.2805C33.4649 12.8212 34.1134 12.3926 34.8074 12.0078C35.492 11.9227 36.1878 11.9008 36.873 11.9592ZM50.396 22.2109C50.3919 22.4357 50.3848 22.659 50.3759 22.8823C50.3356 23.0263 50.2906 23.1698 50.2415 23.3128C49.8098 23.269 49.3792 23.2136 48.9505 23.1469C48.8776 22.6055 48.7728 22.0684 48.639 21.5376C48.7083 20.4202 48.7391 19.3017 48.7527 18.1906C48.7556 18.1925 48.7586 18.194 48.7622 18.1959C49.4243 19.4939 49.9768 20.8385 50.396 22.2109ZM44.2596 29.985C43.3399 30.4408 42.3545 30.7926 41.3294 31.0339C41.4366 30.8826 41.5378 30.7274 41.6302 30.5683C42.4398 29.1784 42.6737 27.6221 42.4978 26.097C42.4883 26.0172 42.4771 25.9374 42.4658 25.8576C42.8111 25.4971 43.1013 25.1031 43.3429 24.6881C44.1465 26.3932 44.5581 28.1991 44.2596 29.985ZM28.4554 33.2318C28.3411 32.81 28.2458 32.3853 28.1652 31.9577C28.2037 31.9913 28.2416 32.0248 28.2807 32.0579C28.7249 32.434 29.198 32.7901 29.6943 33.1282C29.5427 33.2299 29.3893 33.3301 29.2353 33.4293C28.9724 33.37 28.7118 33.3038 28.4554 33.2318ZM20.9326 26.3067C20.8852 26.0707 20.8817 26.0308 20.8604 25.8187C20.8248 25.4597 20.8236 25.0982 20.8461 24.7382C20.8473 24.7295 20.8527 24.6526 20.8533 24.6492C20.8574 24.6039 20.8621 24.5592 20.8675 24.5139C20.8775 24.4235 20.89 24.333 20.903 24.2425C20.9314 24.0445 20.9699 23.8479 21.0131 23.6519C21.102 23.2481 21.1926 22.9528 21.33 22.5733C21.4046 22.3671 21.4863 22.1632 21.5734 21.9613C21.6208 21.9871 21.6675 22.0129 21.7149 22.0387C21.9932 22.8584 22.3782 23.6504 22.8519 24.4069C22.2651 25.125 21.6427 25.8163 20.9681 26.4677C20.9563 26.4142 20.9439 26.3607 20.9326 26.3067ZM25.5731 16.6119C25.7585 16.6275 25.9439 16.646 26.1286 16.6688C26.0428 16.8391 25.9598 17.0099 25.8793 17.1816C25.7022 17.2249 25.5269 17.2716 25.3522 17.3207C25.2835 17.2181 25.2131 17.1184 25.1402 17.0206C25.2818 16.8829 25.4263 16.7467 25.5731 16.6119ZM35.7307 16.0257C36.8363 16.879 37.8875 17.7844 38.8652 18.7398C38.8309 18.7583 38.7959 18.7768 38.7616 18.7958C38.5887 18.8892 38.4163 18.984 38.2446 19.0799C37.5416 18.5895 36.7688 18.1658 35.9445 17.8179C34.3171 17.1315 32.5203 16.7671 30.7016 16.6946C30.4132 16.5964 30.1237 16.5 29.8311 16.4091C29.8027 16.4003 29.7737 16.3915 29.7452 16.3828C30.5323 15.4351 31.3904 14.5312 32.3669 13.6993C33.5442 14.4184 34.6635 15.2016 35.7307 16.0257ZM40.7259 26.1354C39.8133 26.6608 38.7254 26.98 37.618 26.9668C38.7272 25.519 39.6831 24.007 40.4648 22.4683C40.7603 22.9299 41.0108 23.4111 41.2133 23.9058C41.1138 24.6575 40.9516 25.4028 40.7259 26.1354ZM27.1099 29.533C26.7694 29.1044 26.4768 28.6603 26.2299 28.203C26.2465 28.1952 26.2625 28.1874 26.279 28.1796C26.526 28.3771 26.7783 28.5698 27.0371 28.7561C27.0596 29.0125 27.0833 29.2713 27.1099 29.533ZM29.9034 17.5105C32.1792 18.2105 34.3183 19.1767 36.4597 20.138C35.3523 20.838 34.2958 21.5926 33.3151 22.407C32.8608 22.784 32.422 23.1785 32.0181 23.5945C30.5726 22.2124 29.002 20.9334 27.191 19.8519C27.7181 19.074 28.2552 18.302 28.8232 17.5484C29.1826 17.5236 29.5427 17.5114 29.9034 17.5105ZM36.5171 26.8744C35.9468 26.7931 35.3836 26.6676 34.8317 26.5304C34.2087 25.8367 33.5756 25.1512 32.9201 24.4848C34.75 23.3347 36.5396 22.1389 38.3506 20.9772C38.8421 21.1903 39.336 21.399 39.8341 21.5999C39.8607 21.6325 39.8879 21.6651 39.914 21.6977C39.0316 23.5171 37.8525 25.251 36.5171 26.8744ZM34.9573 28.147C35.0336 28.2332 35.11 28.3193 35.1858 28.4054C35.0828 28.5177 34.9792 28.6301 34.8743 28.7415C34.2561 29.4002 33.6017 30.0346 32.9147 30.6417C32.5938 30.5425 32.2763 30.435 31.9625 30.3197C31.388 29.3161 31.1002 28.2054 31.1547 27.1215C31.1659 26.8997 31.2056 26.6462 31.266 26.3942C32.2284 26.7377 33.2108 27.0534 34.2105 27.3098C34.4616 27.59 34.7109 27.8693 34.9573 28.147ZM22.335 21.3946C22.3006 21.2803 22.2674 21.163 22.2355 21.0409C22.2124 20.9519 22.1905 20.8624 22.1703 20.7724C22.4789 20.2324 22.8288 19.7079 23.2126 19.1996C23.7764 19.3664 24.3342 19.5673 24.8844 19.8043C24.6292 20.677 24.4444 21.5619 24.3372 22.4546C24.3348 22.458 24.3325 22.461 24.3301 22.4639C24.0529 22.3194 23.7788 22.1715 23.5087 22.0178C23.1244 21.7998 22.7282 21.5999 22.335 21.3946ZM26.1707 21.3712C26.3542 22.0893 26.4839 22.8215 26.5823 23.5561C26.1085 23.341 25.6395 23.1192 25.1758 22.891C25.1775 22.8682 25.1787 22.8458 25.1805 22.8229C25.5157 22.3423 25.8438 21.8572 26.1707 21.3712ZM25.5335 20.73C25.5797 20.5442 25.6288 20.3589 25.6815 20.1745C25.733 20.1998 25.7834 20.2265 25.8343 20.2523C25.8367 20.2596 25.839 20.2674 25.842 20.2747C25.739 20.4265 25.6365 20.5783 25.5335 20.73ZM26.8872 20.8312C28.5158 21.7964 29.9572 22.9757 31.2826 24.2425C30.8752 24.4964 30.4642 24.7465 30.0508 24.9922C29.172 24.6604 28.302 24.3096 27.4451 23.9389C27.332 22.8905 27.1644 21.8514 26.8872 20.8312ZM39.5871 20.1827C39.7251 20.0937 39.8643 20.0047 40.0046 19.9152C40.1627 20.0879 40.3185 20.2625 40.4713 20.4382C40.4346 20.5306 40.3973 20.623 40.3588 20.7154C40.2214 20.661 40.084 20.606 39.9472 20.5505C39.8311 20.4255 39.7109 20.3029 39.5871 20.1827ZM32.0673 25.015C32.3983 25.3502 32.7223 25.6893 33.0409 26.0303C32.5487 25.8781 32.0614 25.7161 31.5775 25.5477C31.5799 25.5438 31.5817 25.54 31.5835 25.5365C31.571 25.5614 31.6527 25.4251 31.6681 25.4008C31.7161 25.3274 31.767 25.2554 31.8191 25.1838C31.8268 25.1731 31.8351 25.1624 31.8428 25.1517C31.9174 25.106 31.9933 25.0608 32.0673 25.015ZM29.0689 25.5628C28.5958 25.8314 28.1178 26.0926 27.6328 26.3461C27.605 25.8756 27.5748 25.4052 27.5369 24.9362C28.0444 25.1512 28.5561 25.3599 29.0689 25.5628ZM27.6986 27.4888C28.5946 27.0325 29.4705 26.5509 30.3321 26.0517C30.3884 26.0727 30.4446 26.0936 30.5009 26.115C30.4962 26.134 30.4914 26.1524 30.4867 26.1714C30.2083 27.3648 30.3457 28.6491 30.8183 29.8561C29.7204 29.3686 28.6852 28.7853 27.7376 28.1334C27.724 27.9189 27.7104 27.7038 27.6986 27.4888ZM35.8444 27.6688L35.842 27.6713L35.839 27.6678L35.8444 27.6688ZM40.7496 19.688C40.7034 19.6354 40.656 19.5839 40.6093 19.5318C40.6904 19.4807 40.7715 19.4297 40.8532 19.3791C40.8201 19.4822 40.7851 19.5849 40.7496 19.688ZM34.3905 18.1395C34.9916 18.3176 35.5767 18.5336 36.1387 18.7885C36.584 18.9909 37.0051 19.218 37.4025 19.4666C36.3987 19.0234 35.399 18.5734 34.3905 18.1395ZM26.4241 19.4151C26.4241 19.4151 26.4206 19.4131 26.4188 19.4122C26.3359 19.201 26.2476 18.9913 26.1523 18.7826C26.2713 18.4757 26.4004 18.1706 26.5378 17.8685C26.8997 17.7912 27.2657 17.7265 27.634 17.6744C27.2224 18.248 26.8215 18.8293 26.4241 19.4151ZM25.1497 18.6829C25.1704 18.7218 25.19 18.7612 25.2101 18.8001L25.2083 18.8045C24.9513 18.6883 24.6925 18.5803 24.4325 18.48C24.5966 18.4187 24.763 18.3609 24.9306 18.3049C25.0064 18.428 25.0804 18.5535 25.1497 18.6829ZM23.4122 22.9528C23.5448 23.0263 23.6787 23.0992 23.8131 23.1712C23.6775 23.3537 23.5407 23.5346 23.4015 23.7146C23.1877 23.3663 22.9899 23 22.8146 22.6288C23.0148 22.7358 23.2144 22.8429 23.4122 22.9528ZM24.2401 24.1277C24.246 24.4113 24.265 24.6925 24.2952 24.9717C24.1749 24.8219 24.0577 24.6706 23.944 24.5169C24.0435 24.3875 24.1424 24.2581 24.2401 24.1277ZM25.1432 23.8504C25.656 24.0999 26.1754 24.3408 26.7007 24.5733C26.7741 25.2972 26.8262 26.0191 26.8783 26.7299C26.6817 26.8277 26.4839 26.923 26.285 27.0179C26.0001 26.7737 25.7253 26.5212 25.4612 26.2609C25.2527 25.4767 25.1509 24.6691 25.1432 23.8504ZM28.4779 29.6994C29.4124 30.2535 30.4168 30.7415 31.4697 31.1453C31.5663 31.2995 31.6681 31.4513 31.7765 31.5996C31.3928 31.9066 31.0001 32.2058 30.5992 32.4962C29.8572 32.0258 29.1584 31.5199 28.5164 30.9764C28.3133 30.8042 28.1202 30.6281 27.9366 30.4491C27.891 30.0648 27.8537 29.679 27.8211 29.2922C28.0373 29.4319 28.2558 29.5681 28.4779 29.6994ZM33.151 31.7033C34.1791 31.9932 35.2397 32.1995 36.314 32.3055C36.1411 32.4267 35.9646 32.5449 35.7834 32.6592C35.5157 32.8271 35.2391 32.9852 34.9555 33.1355C34.5409 32.9234 34.1519 32.6753 33.7924 32.3999C33.536 32.2034 33.2967 31.9922 33.074 31.7694C33.0995 31.7475 33.1255 31.7252 33.151 31.7033ZM34.0014 30.9409C34.6345 30.3528 35.2391 29.7442 35.8136 29.1181C36.4271 29.8157 37.0418 30.5148 37.6666 31.207C37.5932 31.2766 37.5185 31.3447 37.4427 31.4128C36.2749 31.3763 35.1207 31.2114 34.0014 30.9409ZM36.4668 28.384C36.6249 28.2006 36.7801 28.0152 36.9334 27.8289C37.1537 27.8517 37.3752 27.8683 37.5973 27.8751C38.0906 27.8897 38.5596 27.8143 39.0358 27.7121C39.474 27.6182 39.8986 27.4844 40.3019 27.3166C40.1325 27.7277 39.9424 28.1334 39.7298 28.5319C39.3556 29.2334 38.8925 29.8955 38.347 30.5089C37.7122 29.8069 37.0886 29.0957 36.4668 28.384ZM41.1191 22.0961C41.1902 22.1224 41.2619 22.1477 41.3335 22.1735C41.3329 22.2669 41.3317 22.3608 41.3294 22.4542C41.2625 22.334 41.1914 22.2143 41.1191 22.0961ZM26.9891 16.9476C27.0134 16.9014 27.0371 16.8552 27.0619 16.8094C27.1822 16.8308 27.3012 16.8537 27.4208 16.8771C27.2763 16.899 27.1324 16.9223 26.9891 16.9476ZM26.648 15.7041C26.6432 15.7037 26.6385 15.7032 26.6338 15.7027C26.6432 15.6949 26.6527 15.6871 26.6628 15.6793C26.6581 15.6876 26.6527 15.6959 26.648 15.7041ZM23.3956 25.2086C23.7716 25.7204 24.188 26.2137 24.6392 26.6847C24.7322 26.9984 24.8406 27.3083 24.9649 27.6134C24.1056 27.9792 23.2215 28.3134 22.3083 28.6087C22.223 28.5275 22.1058 28.5085 21.9962 28.6452C21.9761 28.6705 21.9565 28.6963 21.9364 28.7216C21.6812 28.3173 21.4644 27.8994 21.2915 27.4762C22.0578 26.7601 22.7513 25.9992 23.3968 25.2091L23.3956 25.2086ZM25.4138 28.5708C25.9006 29.4834 26.5337 30.3469 27.3053 31.1453C27.3936 31.7558 27.502 32.3688 27.6364 32.9749C26.1043 32.4447 24.7227 31.6595 23.5875 30.6583C23.2327 30.3455 22.9041 30.004 22.6056 29.6435C23.5673 29.3307 24.506 28.9663 25.4138 28.5708ZM32.9509 33.8039C32.4558 33.5621 31.9719 33.3077 31.5029 33.0396C31.8032 32.8125 32.0981 32.5799 32.3889 32.344C32.836 32.8275 33.3476 33.2634 33.915 33.6336C33.8007 33.6828 33.6858 33.7305 33.5697 33.7772C33.3642 33.7908 33.1569 33.7991 32.9509 33.8039ZM37.2633 32.7959C37.4362 32.6636 37.602 32.5264 37.7643 32.3873C38.0243 32.3907 38.2843 32.3873 38.5442 32.378C38.1208 32.6203 37.669 32.8334 37.1982 33.0124C37.0477 33.0698 36.8949 33.1228 36.7416 33.1739C36.9186 33.0513 37.0939 32.9258 37.2633 32.7959ZM39.1418 31.3744C39.0843 31.3126 39.0263 31.2518 38.9688 31.19C40.1213 29.859 40.9148 28.3256 41.4176 26.726C41.5449 26.6423 41.6693 26.5548 41.7889 26.4633C41.7984 26.456 41.8073 26.4487 41.8168 26.4414C41.8298 26.6088 41.8387 26.7761 41.841 26.9435C41.8594 28.2677 41.4739 29.572 40.5642 30.705C40.4049 30.9035 40.2285 31.0937 40.0396 31.2756C39.7423 31.3175 39.4432 31.3506 39.1418 31.3744ZM42.3829 24.7051C42.3468 24.7533 42.3089 24.8005 42.2704 24.8477C42.1964 24.5495 42.1081 24.2537 42.0063 23.9618C42.0625 23.4899 42.0981 23.0195 42.1135 22.5524C42.4019 22.9776 42.6713 23.4135 42.9177 23.8577C42.7661 24.1491 42.5884 24.4327 42.3829 24.7051ZM43.0539 22.7572C43.1475 22.7874 43.241 22.8166 43.3346 22.8463C43.3091 22.927 43.2819 23.0068 43.2535 23.0866C43.1883 22.9762 43.1214 22.8662 43.0539 22.7572ZM42.4522 21.4807C42.3367 21.4423 42.2218 21.4033 42.1075 21.3639C42.0738 20.5812 41.979 19.794 41.8221 19.0132C41.847 18.9242 41.8712 18.8352 41.8943 18.7462C42.3876 18.4547 42.8916 18.1706 43.405 17.9011C43.5531 18.5409 43.6414 19.1762 43.6751 19.83C43.7095 20.4951 43.6852 21.1747 43.5738 21.8436C43.196 21.7254 42.8217 21.6038 42.4522 21.4807ZM44.0725 17.6014C44.1743 17.5757 44.2762 17.5499 44.3787 17.526C44.8601 17.4151 45.3712 17.3407 45.8817 17.3533C46.8801 18.8687 47.5967 20.5194 47.9692 22.2639C47.9485 22.497 47.926 22.73 47.9011 22.963C46.6658 22.7237 45.4482 22.4079 44.2655 22.0548C44.2809 21.9628 44.2951 21.8709 44.3082 21.7794C44.4989 20.3949 44.4041 18.9748 44.0725 17.6014ZM48.119 19.8889C47.8123 19.0779 47.4344 18.2869 46.9897 17.5212C47.3977 17.6204 47.7951 17.7464 48.1711 17.906C48.1617 18.5661 48.1457 19.2278 48.119 19.8889ZM32.0264 12.7823C31.9903 12.7619 31.9536 12.7424 31.9175 12.722C32.0235 12.684 32.1301 12.6475 32.2366 12.612C32.1662 12.668 32.0963 12.7249 32.0264 12.7823ZM31.5284 13.2055C30.9297 13.7334 30.3665 14.2972 29.8364 14.8898C29.4787 15.2892 29.1353 15.7003 28.8024 16.1196C28.4086 16.0199 28.0089 15.9318 27.6062 15.8569C27.936 15.3169 28.2955 14.7876 28.681 14.2709C29.471 13.7913 30.3049 13.3651 31.1754 13.0075C31.2933 13.0732 31.4111 13.1389 31.5284 13.2055ZM30.1835 12.4656C30.1906 12.4734 30.1989 12.4807 30.2072 12.487C30.1811 12.4992 30.1556 12.5118 30.1296 12.524C30.1474 12.5045 30.1651 12.4851 30.1835 12.4656ZM23.0924 18.0383C23.0924 18.0383 23.0871 18.0368 23.0841 18.0359C23.331 17.672 23.5898 17.3149 23.8634 16.9656C23.8919 16.9933 23.9191 17.0225 23.9475 17.0507C23.6491 17.3728 23.363 17.7021 23.0924 18.0383ZM22.9331 16.6742C22.6607 17.0459 22.3995 17.4258 22.1478 17.8111C22.1378 17.8092 22.1271 17.8072 22.117 17.8053C22.1863 17.4599 22.2828 17.1169 22.4072 16.7715C22.5813 16.734 22.7566 16.7014 22.9331 16.6742ZM21.3549 17.671C21.0019 17.618 20.6466 17.5776 20.2901 17.5494C20.617 17.3767 20.967 17.22 21.3418 17.0804C21.3939 17.061 21.4466 17.0425 21.4999 17.024C21.4425 17.2385 21.3945 17.4545 21.3549 17.671ZM21.2305 18.7578C21.2234 18.9116 21.2204 19.0653 21.2216 19.2195C20.8373 19.4832 20.4719 19.7649 20.1284 20.0626C19.6712 19.7352 19.2389 19.3844 18.8445 19.0084C18.7645 18.9325 18.687 18.8551 18.61 18.7768C18.6751 18.7111 18.7409 18.6464 18.8096 18.5837C19.6215 18.5778 20.4298 18.6357 21.2305 18.7578ZM19.5072 20.6434C19.1601 20.9923 18.8398 21.3596 18.5502 21.7434C18.4175 21.0142 18.3204 20.2883 18.2576 19.5707C18.642 19.9517 19.0624 20.3092 19.5072 20.6434ZM20.1414 21.0959C20.1699 21.1153 20.1983 21.1343 20.2267 21.1538C19.7861 22.0071 19.3751 22.855 18.9819 23.6743C18.8978 23.36 18.8208 23.0452 18.7503 22.7305C19.1441 22.1457 19.6114 21.5984 20.1414 21.0959ZM20.7058 28.0001C20.8313 28.2978 20.9747 28.5927 21.1381 28.8831C21.1505 28.9045 21.163 28.9259 21.1754 28.9473C21.1541 28.9531 21.1328 28.959 21.1115 28.9648C20.945 28.6666 20.7863 28.3655 20.6353 28.0609C20.659 28.041 20.6827 28.0201 20.7058 28.0001ZM29.0162 34.8927C29.0002 34.8538 28.9848 34.8148 28.9694 34.7759C29.1589 34.6587 29.3467 34.5395 29.5332 34.4188C29.9448 34.4996 30.3635 34.5653 30.7857 34.6139C30.5465 34.664 30.3066 34.7093 30.0656 34.7496C29.7186 34.8075 29.3686 34.8547 29.0162 34.8927ZM38.5093 33.4074C38.7805 33.2668 39.0411 33.1146 39.291 32.9516C39.5368 33.2055 39.7843 33.458 40.036 33.7081C39.2004 33.8852 38.3216 33.9591 37.4646 33.8764C37.8229 33.7382 38.1717 33.5821 38.5093 33.4074ZM48.2612 25.0836C48.2588 25.6981 48.2138 26.3071 48.1279 26.9089C48.0308 27.0262 47.9313 27.142 47.8294 27.2563C48.0041 26.5373 48.1457 25.8124 48.2612 25.0836ZM49.0506 24.1895C49.3117 24.2269 49.5741 24.2605 49.8364 24.2902C49.6138 24.7538 49.352 25.2082 49.0612 25.6494C49.0831 25.161 49.0796 24.674 49.0506 24.1895ZM46.7901 16.502C46.7652 16.4966 46.741 16.4927 46.7167 16.4879C47.0329 16.3881 47.3515 16.2981 47.6731 16.2203C47.7969 16.4295 47.9171 16.6387 48.0355 16.8484C47.6322 16.7039 47.2118 16.59 46.7901 16.502ZM45.7899 15.7212C45.0384 14.7346 44.1696 13.8059 43.1942 12.9511C44.3242 13.3534 45.4209 13.819 46.4715 14.3459C46.6888 14.6587 46.8985 14.9744 47.1016 15.2921C46.6569 15.4176 46.2186 15.5621 45.7899 15.7212ZM43.1178 16.8693C42.8188 16.9607 42.5227 17.0614 42.2301 17.1699C42.332 16.5497 42.3989 15.9235 42.4273 15.2974C42.7341 15.799 42.9449 16.3332 43.1178 16.8693ZM41.3744 17.313C40.7703 15.475 39.7879 13.7271 38.3867 12.2316C39.7233 12.614 40.8041 13.3568 41.6403 14.2714C41.6592 15.294 41.5597 16.3191 41.3744 17.313ZM30.9048 12.1776C30.8106 12.1289 30.7153 12.0818 30.6205 12.0341C31.2731 11.8283 31.9429 11.676 32.624 11.5719C32.0329 11.7417 31.4567 11.947 30.9048 12.1776ZM17.9331 22.6653C17.5742 23.27 17.284 23.9068 17.0732 24.5699C16.7972 25.4368 16.6208 26.3159 16.6373 27.2135C16.6421 27.4674 16.6628 27.7199 16.6977 27.9709C16.5651 28.1821 16.4307 28.3922 16.2915 28.6009C16.2731 28.0838 16.2714 27.5667 16.2761 27.052C16.2939 25.1011 16.4875 23.1075 17.1206 21.2204C17.2307 20.8925 17.3628 20.5792 17.5174 20.2805C17.6139 21.0793 17.7542 21.8748 17.9343 22.6648L17.9331 22.6653ZM17.0081 29.2879C17.0146 29.3073 17.0211 29.3268 17.0276 29.3467C16.9968 29.3628 16.9666 29.3798 16.9358 29.3959C16.9601 29.3603 16.9838 29.3234 17.0081 29.2879ZM17.5067 28.5202C18.0213 27.6922 18.4844 26.8384 18.9233 25.9729C19.1335 26.5411 19.3627 27.1045 19.609 27.6625C19.0014 28.1441 18.3518 28.5931 17.6506 29.0023C17.5967 28.8422 17.5476 28.6812 17.5067 28.5202ZM20.858 30.1441C20.8846 30.1893 20.9131 30.2346 20.9397 30.2798C20.5536 31.0514 20.2936 31.8628 20.1841 32.6889C19.4983 32.0496 18.8972 31.3491 18.4211 30.5941C19.243 30.4948 20.0573 30.3406 20.858 30.1441ZM21.478 33.7548C21.2885 33.6166 21.1032 33.4741 20.922 33.3281C20.9403 32.9866 20.9901 32.6422 21.067 32.2929C21.1582 31.8794 21.2856 31.4707 21.4384 31.0674C22.3326 32.4106 23.4288 33.7052 24.6955 34.8654C23.957 34.7749 23.228 34.6387 22.5174 34.4578C22.1591 34.233 21.812 33.9985 21.478 33.7548ZM26.3477 36.2266C26.4247 36.2835 26.5029 36.34 26.5805 36.3959C26.4685 36.357 26.3572 36.3171 26.2459 36.2762C26.2796 36.2597 26.314 36.2432 26.3477 36.2266ZM34.6842 34.5813C34.9661 34.5424 35.2462 34.4947 35.5228 34.4383C36.4419 34.7735 37.4534 34.9462 38.5336 34.9058C39.3396 34.8752 40.129 34.7424 40.8959 34.5361C41.0191 34.6519 41.144 34.7662 41.2696 34.8805C40.7011 35.3597 40.0733 35.7864 39.4029 36.141C37.8093 35.7285 36.2115 35.2104 34.6842 34.5813ZM42.0098 34.1814C42.0152 34.1795 42.0205 34.1775 42.0252 34.1756C42.0217 34.179 42.0187 34.1824 42.0152 34.1863C42.0134 34.1848 42.0116 34.1829 42.0098 34.1814ZM44.3686 32.0054C44.5439 31.5967 44.6842 31.1783 44.7896 30.7536C45.1485 30.5673 45.4979 30.3674 45.8367 30.1538C45.9906 30.0565 46.1399 29.9553 46.2873 29.8512C46.1043 30.3056 45.9024 30.7551 45.6809 31.1973C45.2569 31.48 44.8192 31.7509 44.3686 32.0054ZM48.7497 28.0332C48.7995 27.8046 48.8439 27.5759 48.8818 27.3477C49.0672 27.1118 49.2442 26.8729 49.413 26.6316C49.6605 26.2775 49.9028 25.8946 50.1284 25.4918C49.9957 26.3363 49.811 27.1721 49.5688 27.9967C49.2271 28.345 48.8705 28.6836 48.501 29.0125C48.5934 28.689 48.6775 28.363 48.7497 28.0332ZM50.8497 26.1768C50.9237 25.755 50.9853 25.3312 51.0374 24.9061C51.1049 25.304 51.1594 25.7029 51.202 26.1023C51.0593 26.2984 50.9095 26.4906 50.7537 26.6803C50.7881 26.5115 50.8201 26.3436 50.8497 26.1768ZM49.5824 17.6467C49.5232 17.6029 49.4627 17.5611 49.4017 17.5197C49.1962 17.1116 48.9819 16.7102 48.7592 16.3161L48.7592 16.3118C48.7592 16.2242 48.7195 16.0997 48.636 16.0243C48.8321 15.9921 49.0293 15.9639 49.2276 15.9415C49.3544 16.0262 49.4805 16.1113 49.6055 16.1979C49.8074 16.8109 49.9632 17.436 50.0822 18.0675C49.9306 17.9216 49.7648 17.7814 49.5824 17.6467ZM47.6772 13.7918C47.4167 13.6478 47.1508 13.5067 46.8801 13.368C46.16 12.3639 45.3647 11.388 44.49 10.469C46.5929 11.1657 48.0308 12.7745 48.912 14.5147C48.5069 14.2637 48.0953 14.0224 47.6772 13.7918ZM45.0923 12.523C44.1151 12.0993 43.0965 11.7183 42.0507 11.3953C41.9382 10.9546 41.799 10.5211 41.6332 10.0964C42.0306 10.0891 42.4279 10.1003 42.8229 10.1334C43.6431 10.8782 44.3976 11.6819 45.0923 12.523ZM41.1535 11.1341C40.9468 11.0776 40.7395 11.0236 40.5317 10.9726C40.1746 10.7483 39.8086 10.5323 39.4331 10.3255C39.8791 10.2419 40.3286 10.1791 40.7798 10.1402C40.9237 10.4661 41.0481 10.7979 41.1535 11.1341ZM40.9125 8.60045C41.147 8.76536 41.3768 8.93515 41.6024 9.10931C41.468 9.11223 41.3335 9.11758 41.1985 9.12439C41.1085 8.9478 41.0131 8.77266 40.9125 8.60045ZM40.3795 12.0983C40.4488 12.1158 40.5181 12.1343 40.5873 12.1523C40.9089 12.3649 41.2228 12.5853 41.5284 12.8125C41.5396 12.8922 41.5491 12.972 41.5586 13.0523C41.218 12.7424 40.8456 12.4568 40.4423 12.2058C40.3546 12.1513 40.2658 12.0988 40.1764 12.0487C40.2445 12.0652 40.312 12.0813 40.3795 12.0983ZM36.1517 10.2963C36.1268 10.2949 36.1026 10.2939 36.0777 10.2929C35.4304 9.87067 34.7352 9.49996 33.9979 9.19007C34.914 9.44256 35.8047 9.74564 36.664 10.0949C36.4911 10.1596 36.3205 10.2268 36.1517 10.2963ZM34.2875 10.2788C34.1672 10.2837 34.047 10.289 33.9268 10.2959C33.3405 10.3299 32.7779 10.3961 32.2366 10.49C32.5168 10.2496 32.8028 10.0147 33.0953 9.78456C33.5081 9.93099 33.9061 10.0959 34.2875 10.2788ZM29.1299 8.8899C28.4098 9.15553 27.7033 9.43964 27.014 9.73785C24.4349 10.8519 21.9388 12.2496 19.782 13.9231C19.4639 13.8662 19.1406 13.8224 18.8137 13.7908C19.1779 12.7716 19.7204 11.8035 20.5009 10.9405C21.1535 10.219 21.9518 9.67218 22.8407 9.26936C24.8329 8.72985 27.0211 8.64131 29.1299 8.8899ZM18.1013 12.0292C17.9757 12.1591 17.8514 12.2895 17.7276 12.4208C18.0634 11.9684 18.4732 11.5588 18.9333 11.1886C18.6508 11.4673 18.3737 11.7475 18.1013 12.0292ZM16.8203 14.8032C16.8345 14.7861 16.8488 14.7686 16.8636 14.7516C16.9707 14.7458 17.0779 14.7409 17.1857 14.737C17.345 14.7312 17.5031 14.7297 17.6601 14.7297C17.5707 15.1422 17.5043 15.5592 17.4564 15.978C17.3178 16.1186 17.1828 16.2617 17.0489 16.4057C16.9636 16.159 16.8967 15.8973 16.8511 15.6292C16.8209 15.4512 16.8067 15.0858 16.8132 14.8299C16.8156 14.8212 16.818 14.8119 16.8203 14.8032ZM14.9365 17.9775C14.7446 18.0208 14.5528 18.0665 14.3603 18.1157C14.3337 18.1225 14.307 18.1298 14.2798 18.1371C14.6386 17.6253 15.0117 17.1116 15.3984 16.5988C15.2474 17.059 15.0929 17.5183 14.9365 17.9775ZM22.5647 35.4624C22.9959 35.7212 23.4418 35.9649 23.9001 36.1926C23.3115 36.429 22.714 36.6484 22.1087 36.8498C21.6474 36.2874 21.3158 35.6686 21.1233 35.0372C21.5941 35.1992 22.0756 35.3407 22.5647 35.4624ZM25.1775 36.7734C26.484 37.3139 27.8673 37.7318 29.2827 38.0091C29.5516 38.14 29.824 38.2645 30.1006 38.3823C30.6661 39.0439 31.3406 39.6296 32.1454 40.1127C31.799 40.137 31.452 40.1516 31.1049 40.1565C28.8332 40.1871 26.4656 39.7566 24.5326 38.7486C23.944 38.4416 23.3962 38.0792 22.9135 37.6657C23.684 37.3976 24.4391 37.0994 25.1775 36.7734ZM41.1399 36.5501C40.9367 36.5068 40.733 36.4621 40.5287 36.4154C40.9995 36.105 41.4401 35.7635 41.8493 35.3967C41.985 35.5149 42.1229 35.6321 42.2609 35.7484C41.9447 36.0354 41.6142 36.3118 41.2702 36.5769C41.2269 36.5681 41.1831 36.5594 41.1399 36.5501ZM43.6473 35.4813C44.6102 34.4432 45.3931 33.2994 46.0285 32.1032C46.1736 32.0083 46.3181 31.9125 46.4614 31.8147C45.7277 33.1462 44.7884 34.3984 43.6733 35.5407C43.6573 35.5285 43.6419 35.5159 43.626 35.5042C43.6331 35.4964 43.6408 35.4886 43.6473 35.4813ZM47.8928 30.7595C48.2357 30.487 48.5691 30.2068 48.893 29.9193C48.6354 30.541 48.3435 31.1545 48.0124 31.7587C47.7187 32.2953 47.3853 32.8183 47.0158 33.3208C46.6433 33.6711 46.2607 34.0141 45.8686 34.3507C46.6912 33.2255 47.3705 32.0224 47.8928 30.7595ZM53.1161 24.4439C53.148 24.4429 53.18 24.4429 53.212 24.4419C53.3346 24.4381 53.4572 24.4327 53.5786 24.4264C53.1166 25.2821 52.6222 26.1267 52.1028 26.959C52.0904 26.7742 52.075 26.5888 52.0572 26.404C52.4741 25.7769 52.8271 25.1201 53.1161 24.4439ZM53.5081 23.3906C53.8303 22.3851 54.0162 21.3474 54.0624 20.3068C54.3934 20.73 54.6931 21.162 54.9596 21.6013C54.7044 22.1851 54.4319 22.7645 54.1441 23.3386C53.9321 23.36 53.7201 23.377 53.5081 23.3906ZM53.119 17.7819C52.4439 17.1164 51.7113 16.4884 50.935 15.9007C51.5704 15.9542 52.1602 16.0909 52.7039 16.2938C52.8821 16.7832 53.0213 17.2808 53.119 17.7819ZM49.9839 14.81C49.3727 13.3077 48.4595 11.8935 47.0933 10.7785C45.9664 9.85851 44.6102 9.36812 43.1729 9.18861C42.7987 8.85245 42.4108 8.52796 42.0104 8.21612C45.5885 8.8899 48.8119 10.6165 50.9071 13.1637C51.3779 13.7363 51.7836 14.3468 52.12 14.9822C51.4241 14.8319 50.707 14.7813 49.9839 14.81ZM21.5793 8.78093C20.0088 9.36083 18.5987 10.2151 17.5979 11.3238C17.6998 10.6486 17.7702 9.97039 17.7975 9.28882C18.0201 9.05045 18.2475 8.81547 18.4803 8.5839C19.8216 8.46715 21.1571 8.28374 22.4664 8.06434C22.1656 8.29931 21.8707 8.53818 21.5793 8.78093ZM16.8434 10.8354C16.7108 11.7981 16.5082 12.7497 16.2637 13.6945C16.2554 13.7241 16.2483 13.7538 16.2406 13.7835C15.5424 13.8424 14.8418 13.9474 14.1507 14.0944C14.9727 12.7706 15.8852 11.4936 16.9074 10.289C16.8896 10.4739 16.8683 10.6563 16.8434 10.8354ZM15.5791 14.8752C14.6102 16.0661 13.7059 17.2993 12.8709 18.5603C12.4179 18.7145 11.969 18.8863 11.5278 19.074C12.0993 17.8019 12.727 16.5433 13.4252 15.3164C14.1282 15.1233 14.8471 14.9749 15.5791 14.8752ZM11.1707 18.0018C10.9208 18.5243 10.6732 19.0522 10.4316 19.5839C8.32515 20.6532 6.50411 22.1199 5.47131 23.9302C5.24449 24.3276 5.06625 24.7329 4.933 25.143C4.34672 24.6156 3.8232 24.0469 3.39267 23.432C4.89391 19.9848 8.27066 17.0658 12.3593 15.6477C11.9417 16.4275 11.5473 17.2142 11.1707 18.0018ZM10.887 20.5607C11.2193 20.3958 11.5562 20.2411 11.8944 20.0971C11.3146 21.0492 10.7739 22.0134 10.2735 22.983C9.67004 24.1525 9.13943 25.3643 8.72607 26.601C8.80661 26.3008 8.89544 26.0031 8.99256 25.7088C9.55456 24.0129 10.1746 22.2814 10.887 20.5607ZM13.5306 27.447C13.703 28.13 13.9469 28.8019 14.2632 29.4464C14.0032 29.4129 13.7438 29.3735 13.4862 29.3277C13.4708 28.7026 13.4874 28.0746 13.5306 27.447ZM14.0832 30.5566C13.915 30.6082 13.745 30.6573 13.5733 30.705C13.565 30.6267 13.5573 30.5483 13.5502 30.4695C13.7284 30.5012 13.9061 30.5303 14.0832 30.5566ZM17.0768 32.8918C18.0053 33.62 19.0713 34.2228 20.2226 34.6976C20.238 34.7856 20.2545 34.8737 20.2735 34.9613C20.4417 35.7299 20.7763 36.4582 21.2441 37.1232C20.8698 37.2356 20.4926 37.3417 20.113 37.4399C18.7687 36.087 17.7193 34.5521 17.0768 32.8918ZM21.9554 37.9809C22.4635 38.5073 23.0622 38.9767 23.7302 39.3737C25.6187 40.4965 27.9337 41.0331 30.2451 41.1085C31.4123 41.1465 32.5831 41.056 33.7266 40.8614C33.9387 40.9383 34.1566 41.0098 34.3822 41.075C32.4202 41.687 30.3374 42.0903 28.2244 42.2669C25.4997 41.3883 22.9923 40.0057 20.9918 38.2621C21.3152 38.1736 21.6367 38.0797 21.9554 37.9809ZM37.6826 39.6476C37.7933 39.6388 37.9047 39.6291 38.016 39.6179C38.0189 39.6179 38.0219 39.6174 38.0249 39.617C37.4824 39.8884 36.924 40.1414 36.3507 40.3734C36.224 40.3603 36.099 40.3443 35.9752 40.3267C36.5568 40.1224 37.1253 39.8933 37.6826 39.6476ZM41.1867 37.6511C41.2009 37.654 41.2151 37.6574 41.2299 37.6603C41.0984 37.7571 40.9652 37.8525 40.8307 37.9468C40.7875 37.9624 40.7437 37.977 40.7005 37.9921C40.8651 37.8807 41.0268 37.7668 41.1867 37.6511ZM41.4916 38.8079C42.101 38.5749 42.679 38.3015 43.225 37.9911C44.0097 38.0855 44.7962 38.1371 45.5755 38.1385C45.6975 38.211 45.8207 38.282 45.9444 38.3521C43.7657 39.4151 41.3229 40.1949 38.816 40.3876C39.7553 39.8719 40.6513 39.3401 41.4916 38.8079ZM45.8799 37.0235C45.6507 36.8878 45.4257 36.7486 45.2048 36.6075C45.9918 35.9425 46.6942 35.1958 47.3142 34.3935C48.4483 33.3495 49.4924 32.2442 50.4144 31.0781C50.6809 30.741 50.9403 30.3985 51.1937 30.0512C51.1162 30.7206 50.9989 31.388 50.8378 32.0506C50.4345 33.7052 49.683 35.2989 48.6348 36.7423C47.7442 36.9165 46.8179 37.006 45.8799 37.0235ZM55.9764 21.4627C56.192 20.948 56.3987 20.4167 56.5917 19.8729C56.8162 20.2937 57.0056 20.7266 57.1608 21.1606C57.2887 21.5196 57.3995 21.8796 57.493 22.2401C57.4889 22.3423 57.4841 22.4439 57.4788 22.5461C57.2082 22.6531 56.9305 22.7509 56.6456 22.839C56.452 22.37 56.2269 21.9112 55.9764 21.4627ZM56.9991 18.6304C57.0495 18.464 57.0974 18.2961 57.1442 18.1283C57.2206 18.4903 57.2851 18.8537 57.3367 19.2185C57.2313 19.0191 57.1181 18.823 56.9991 18.6304ZM57.2271 24.6545C57.162 24.3695 57.085 24.0873 56.9979 23.8095C57.1247 23.7691 57.2508 23.7268 57.3752 23.6825C57.3349 24.0075 57.2858 24.3315 57.2271 24.6545ZM57.3858 28.9463C57.4723 28.3806 57.5155 27.8099 57.5167 27.2412C57.6535 26.8097 57.7737 26.3743 57.8774 25.9364C57.8312 26.9522 57.6636 27.9588 57.3858 28.9463ZM61.6781 6.98141C65.329 9.64201 64.6486 13.8715 63.094 17.2536C62.1359 19.3377 60.5375 21.0492 58.3943 22.1341C58.3843 22.0903 58.3736 22.046 58.363 22.0022C58.3908 20.0942 58.1219 18.1813 57.5635 16.3332C58.4056 11.8643 57.676 7.2373 52.7347 4.60006C52.2609 4.34708 51.7723 4.12816 51.2719 3.93892C55.0164 4.10189 58.9753 5.01163 61.6781 6.98141ZM46.8535 4.09557C50.9344 4.47162 54.7026 6.11499 56.2796 9.46542C57.0566 11.1166 57.1963 12.918 56.9932 14.7112C56.4845 13.4512 55.8366 12.2316 55.0508 11.0772C52.9757 8.02883 49.8879 5.77541 46.179 4.18362C46.4034 4.15151 46.6279 4.12233 46.8535 4.09557ZM44.3064 4.52222C46.6569 5.30546 48.838 6.45455 50.6543 7.82498C53.684 10.111 55.6679 13.1939 56.6983 16.4431C56.6018 16.8771 56.4899 17.3076 56.3679 17.7318C55.8935 17.1364 55.3345 16.5895 54.6777 16.1138C54.1897 15.7601 53.6751 15.4872 53.1427 15.2838C53.0817 15.1442 53.0183 15.0051 52.9514 14.8669C51.141 11.1292 47.1135 8.31147 42.3669 7.36379C41.7149 7.23341 41.0599 7.14147 40.4044 7.08309C40.3724 7.06266 40.341 7.04174 40.309 7.02179C39.9294 6.78439 39.5385 6.56158 39.1388 6.3519C39.0997 6.31444 39.0612 6.27698 39.0216 6.24049C40.7028 5.50152 42.4765 4.91968 44.3064 4.52222ZM38.1297 5.49471C37.8389 5.27627 37.5327 5.06611 37.2088 4.86714C38.5673 4.60979 39.9347 4.39233 41.3158 4.23957C40.222 4.59471 39.1572 5.01552 38.1297 5.49471ZM36.3033 3.44951C37.2449 3.3814 38.1919 3.38773 39.1341 3.46119C38.0409 3.63827 36.9707 3.84357 35.9433 4.05227C35.8746 4.06638 35.8059 4.08049 35.7372 4.09508C35.3659 3.92919 34.9821 3.77741 34.5895 3.6407C35.1515 3.55605 35.723 3.49135 36.3033 3.44951ZM36.5195 6.30909C35.9214 6.63601 35.3386 6.98336 34.7719 7.34871C34.0494 7.47131 33.3322 7.62455 32.6228 7.80261C30.4494 7.33169 28.1794 7.1405 26.0356 7.38082C28.6952 6.82039 31.3365 6.14222 33.9973 5.54092C34.8589 5.74914 35.7022 6.00552 36.5195 6.30909ZM32.4119 4.07903C32.8881 4.17876 33.3559 4.29843 33.8125 4.43952C33.2831 4.32081 32.7471 4.21816 32.2076 4.13206C32.2757 4.11406 32.3438 4.09606 32.4119 4.07903ZM31.4076 5.06708C30.0354 5.39206 28.6656 5.72238 27.2905 6.03471C28.0959 5.61925 28.9256 5.24368 29.7808 4.9153C29.9667 4.92698 30.1527 4.94011 30.338 4.95568C30.6957 4.98487 31.0528 5.02184 31.4076 5.06708ZM29.5303 3.73265C29.7056 3.73849 29.8803 3.74822 30.0544 3.75941C29.9691 3.79054 29.8832 3.82119 29.7979 3.8533C29.1714 3.80805 28.543 3.78324 27.9135 3.77789C28.4418 3.73022 28.9807 3.71368 29.5303 3.73265ZM23.0261 5.19649C24.5113 4.98438 26.012 4.86762 27.5091 4.85449C26.4318 5.39011 25.4038 5.99384 24.4225 6.64914C22.8816 6.95466 21.3288 7.21493 19.7553 7.39687C20.7401 6.54844 21.8357 5.79584 23.0261 5.19649ZM20.4192 5.66887C19.6375 6.25022 18.912 6.88704 18.2393 7.54671C18.0788 7.55985 17.9177 7.57104 17.7566 7.58223C17.7157 7.19498 17.6518 6.80628 17.5629 6.42049C18.4992 6.13249 19.4539 5.88146 20.4192 5.66887ZM16.8926 7.63136C16.0072 7.66979 15.1148 7.67271 14.2253 7.63185C15.0443 7.28693 15.8835 6.97022 16.7398 6.68417C16.8055 6.99747 16.8565 7.31417 16.8926 7.63136ZM8.64612 6.7012C7.22779 6.25703 5.32267 5.37454 5.23087 3.95838C5.16218 2.89638 6.31342 2.00999 7.34504 1.54005C8.71422 0.916372 10.3576 0.852643 11.8269 1.25351C14.4112 1.95891 15.8094 3.6913 16.4715 5.6859C14.9744 6.19282 13.5271 6.78731 12.1532 7.45379C10.9551 7.30006 9.77782 7.05584 8.64612 6.7012ZM10.3463 9.57148C10.9658 9.20758 11.6048 8.86169 12.2604 8.53428C13.8036 8.72547 15.3836 8.76001 16.966 8.68607C16.9678 8.75126 16.969 8.81596 16.9696 8.88066C15.4494 10.5858 14.1803 12.4422 13.074 14.3605C11.4479 14.8139 9.90811 15.4906 8.60881 16.323C6.35073 17.7688 4.11397 20.0208 2.83185 22.497C2.65655 22.1496 2.51028 21.7891 2.39895 21.4145C0.956334 16.5691 5.9652 12.1455 10.3463 9.57148ZM4.95312 30.5279C2.5541 29.4187 2.34269 27.0038 2.84666 25.0189C2.89167 24.8413 2.942 24.6648 2.99707 24.4891C3.47676 25.1269 4.04409 25.7292 4.67834 26.2901C4.4841 27.8751 4.92471 29.4747 5.87105 30.8816C5.5554 30.7819 5.24863 30.6646 4.95312 30.5279ZM7.54816 31.2435C7.46407 31.2328 7.38057 31.2207 7.29707 31.208C6.20149 29.9558 5.52698 28.2575 5.49086 26.9595C6.13636 27.4543 6.83398 27.9091 7.56713 28.3193C7.4481 29.3034 7.44098 30.2832 7.54816 31.2435ZM7.8188 26.887C7.79748 26.9804 7.77676 27.0734 7.75722 27.1668C7.02347 26.7338 6.31224 26.2629 5.65607 25.7491C6.18314 23.8781 7.79393 22.3476 9.72689 21.1927C8.94104 23.0618 8.26236 24.9703 7.8188 26.887ZM8.90669 29.0003C10.1136 29.5559 11.3827 29.9913 12.6518 30.2856C12.6713 30.4973 12.6944 30.7079 12.7211 30.9186C11.3904 31.2182 9.97858 31.3817 8.61473 31.3306C8.64315 30.5503 8.74443 29.7724 8.90669 29.0003ZM8.61888 32.3002C8.62954 32.3002 8.64078 32.3012 8.65144 32.3016C10.0834 32.344 11.5047 32.1995 12.8757 31.8983C12.8934 31.9927 12.9118 32.0871 12.9313 32.1815C12.7525 32.2924 12.5671 32.396 12.3746 32.4909C10.9824 33.1778 9.6955 32.9905 8.62065 32.341C8.62005 32.3274 8.61947 32.3138 8.61888 32.3002ZM9.38045 34.8382C9.15719 34.4184 8.97124 33.9883 8.81726 33.5514C9.77308 33.9834 10.8651 34.1099 11.9749 33.7976C12.4108 33.675 12.8164 33.4926 13.1949 33.2702C13.6947 35.0508 14.5161 36.7428 15.7265 38.2387C14.6333 38.355 13.5265 38.411 12.4108 38.4032C11.1381 37.3903 10.0976 36.1877 9.38045 34.8382ZM10.8829 38.3516C10.7408 38.1648 10.6051 37.9755 10.4754 37.7829C10.6507 37.9794 10.8331 38.1721 11.0238 38.3604C10.9771 38.3579 10.9297 38.3545 10.8829 38.3516ZM16.8571 42.7631C14.808 41.9721 13.0575 40.7724 11.7031 39.3231C11.8452 39.3285 11.9879 39.3328 12.1301 39.3363C12.9165 39.957 13.803 40.5184 14.7932 41.0078C17.4392 42.316 20.4239 43.0452 23.4821 43.2792C24.0802 43.4889 24.6902 43.6767 25.3096 43.8436C22.4463 44.0946 19.5765 43.8134 16.8571 42.7631ZM23.9422 42.3102C22.3462 41.7721 20.8325 41.0847 19.4456 40.2411C18.7977 39.8471 18.2144 39.4199 17.6873 38.966C18.3488 38.8629 19.005 38.7393 19.6534 38.5948C19.702 38.5841 19.75 38.5725 19.7985 38.5613C19.9756 38.7354 20.158 38.9077 20.3463 39.0774C21.8156 40.4002 23.594 41.5094 25.5429 42.3685C25.0082 42.3642 24.474 42.3442 23.9422 42.3102ZM27.7779 43.2919C27.8401 43.2875 27.9029 43.2831 27.965 43.2788C28.0752 43.3138 28.1859 43.3478 28.2967 43.3814C28.1232 43.3532 27.9502 43.323 27.7779 43.2919ZM32.6145 43.2102C34.0121 42.7081 35.3712 42.1263 36.6687 41.4977C39.9519 41.7847 43.334 40.749 46.1399 39.4141C44.8826 40.4737 43.4199 41.3688 41.7872 42.0367C38.8948 43.2199 35.7159 43.5517 32.6145 43.2102ZM46.9926 40.6833C46.2601 41.0599 45.4967 41.4029 44.7085 41.7123C45.2498 41.38 45.7691 41.0205 46.2625 40.6342C46.8156 40.2007 47.3243 39.7473 47.7909 39.2769C48.1137 39.4175 48.4412 39.5488 48.7728 39.671C48.1978 40.031 47.6044 40.3691 46.9926 40.6833ZM49.9833 38.859C49.5184 38.7204 49.0618 38.5598 48.6135 38.3808C48.7859 38.1774 48.9511 37.9717 49.1092 37.7634C49.1133 37.761 49.1175 37.7581 49.121 37.7557C50.7597 37.3728 52.2917 36.6849 53.6147 35.6112C52.5576 36.7987 51.3353 37.8914 49.9833 38.859Z" fill="#E40006"/>
</svg>
